<?xml version="1.0" encoding="utf-8"?>
<!-- Generator: Adobe Illustrator 21.1.0, SVG Export Plug-In . SVG Version: 6.00 Build 0)  -->
<svg version="1.1" id="Layer_1" xmlns="http://www.w3.org/2000/svg" xmlns:xlink="http://www.w3.org/1999/xlink" x="0px" y="0px"
	 viewBox="0 0 700 40" style="enable-background:new 0 0 700 40;" xml:space="preserve">
<g>
	<path d="M0,2.8c0-0.3,0.2-0.5,0.5-0.5h12c6.8,0,10.4,3.6,10.4,9.2c0,4.4-2.2,7-5.5,8v0.1c2.6,0.5,6.1,3.3,6.1,8.5
		c0,6.1-3.9,9.8-11,9.8h-12c-0.3,0-0.5-0.2-0.5-0.5V2.8z M12.4,18.3c4.8,0,7.5-2.7,7.5-6.6c0-4.1-2.6-6.7-7.5-6.7H3.3
		C3.1,5.1,3,5.2,3,5.4V18c0,0.2,0.1,0.3,0.3,0.3H12.4z M3.3,35.1h9.4c5.1,0,7.8-2.7,7.8-6.9s-2.7-7-7.8-7H3.3
		c-0.2,0-0.3,0.1-0.3,0.3v13.3C3,35,3.1,35.1,3.3,35.1z"/>
	<path d="M60.2,2.8c0-0.3,0.2-0.5,0.5-0.5h21.5c0.3,0,0.5,0.2,0.5,0.5v3.3c0,0.3-0.2,0.5-0.5,0.5h-17c-0.2,0-0.3,0.1-0.3,0.3v10.5
		c0,0.2,0.1,0.3,0.3,0.3h14.4c0.3,0,0.5,0.2,0.5,0.5v3.3c0,0.3-0.2,0.5-0.5,0.5H65.2c-0.2,0-0.3,0.1-0.3,0.3v10.9
		c0,0.2,0.1,0.3,0.3,0.3h17c0.3,0,0.5,0.2,0.5,0.5v3.3c0,0.3-0.2,0.5-0.5,0.5H60.7c-0.3,0-0.5-0.2-0.5-0.5V2.8z"/>
	<path d="M126.2,37.9c-0.3,0-0.5-0.2-0.5-0.5V23.3L115.3,2.8c-0.1-0.3,0.1-0.5,0.4-0.5h5.3c0.3,0,0.6,0.2,0.7,0.5l7,13.9h0.2l7-13.9
		c0.2-0.4,0.4-0.5,0.7-0.5h5.1c0.4,0,0.5,0.3,0.4,0.5l-10.3,20.6v14.1c0,0.3-0.2,0.5-0.5,0.5H126.2z"/>
	<path d="M173.9,29.9c-0.7-2.2-0.9-4.2-0.9-9.8c0-5.6,0.2-7.6,0.9-9.8c1.8-5.7,6.5-8.6,12.6-8.6c6.2,0,10.8,2.9,12.6,8.6
		c0.7,2.2,0.9,4.2,0.9,9.8c0,5.6-0.2,7.6-0.9,9.8c-1.8,5.7-6.5,8.6-12.6,8.6C180.4,38.5,175.8,35.5,173.9,29.9z M193.2,28.3
		c0.4-1.3,0.6-3.1,0.6-8.2c0-5.1-0.2-6.9-0.6-8.2c-1-2.9-3.1-4.7-6.7-4.7c-3.5,0-5.6,1.8-6.6,4.7c-0.4,1.3-0.6,3.1-0.6,8.2
		c0,5,0.2,6.9,0.6,8.2c1,2.9,3.1,4.7,6.6,4.7C190.1,32.9,192.2,31.1,193.2,28.3z"/>
	<path d="M236.8,2.8c0-0.3,0.2-0.5,0.5-0.5h6.3c0.4,0,0.7,0.2,0.9,0.5l12.6,22.5h0.3V2.8c0-0.3,0.2-0.5,0.5-0.5h5.9
		c0.3,0,0.5,0.2,0.5,0.5v34.6c0,0.3-0.2,0.5-0.5,0.5h-6.2c-0.4,0-0.7-0.2-0.9-0.5L244.1,15h-0.3v22.4c0,0.3-0.2,0.5-0.5,0.5h-5.9
		c-0.3,0-0.5-0.2-0.5-0.5V2.8z"/>
	<path d="M305.8,2.8c0-0.3,0.2-0.5,0.5-0.5h13.3c6.2,0,10.6,2.7,12.3,8c0.6,2,0.9,4,0.9,9.8c0,5.8-0.3,7.8-0.9,9.8
		c-1.7,5.4-6.1,8-12.3,8h-13.3c-0.3,0-0.5-0.2-0.5-0.5V2.8z M313.8,31h4c3.6,0,5.7-1,6.6-3.9c0.4-1,0.6-2.4,0.6-7c0-4.6-0.2-6-0.6-7
		c-0.9-2.9-3-3.9-6.6-3.9h-4c-0.2,0-0.3,0.1-0.3,0.3v21.3C313.5,30.9,313.6,31,313.8,31z"/>
	<path d="M396.6,2.8c0-0.3,0.2-0.5,0.5-0.5h6.7c0.3,0,0.5,0.2,0.5,0.5v28c0,0.2,0.1,0.3,0.3,0.3h15.7c0.3,0,0.5,0.2,0.5,0.5v5.8
		c0,0.3-0.2,0.5-0.5,0.5h-23.2c-0.3,0-0.5-0.2-0.5-0.5V2.8z"/>
	<path d="M455.8,2.8c0-0.3,0.2-0.5,0.5-0.5h6.7c0.3,0,0.5,0.2,0.5,0.5v34.6c0,0.3-0.2,0.5-0.5,0.5h-6.7c-0.3,0-0.5-0.2-0.5-0.5V2.8z
		"/>
	<path d="M503.9,2.8c0-0.3,0.2-0.5,0.5-0.5h4.7c0.5,0,0.7,0.2,0.9,0.5l9.8,22h0.2l9.7-22c0.2-0.4,0.4-0.5,0.9-0.5h4.6
		c0.3,0,0.5,0.2,0.5,0.5v34.6c0,0.3-0.2,0.5-0.5,0.5h-4.6c-0.3,0-0.5-0.2-0.5-0.5V15.6h-0.2l-7.6,16.8c-0.2,0.5-0.5,0.7-1,0.7h-3
		c-0.5,0-0.8-0.2-1-0.7l-7.6-16.8h-0.2v21.8c0,0.3-0.2,0.5-0.5,0.5h-4.6c-0.3,0-0.5-0.2-0.5-0.5V2.8z"/>
	<path d="M576.1,2.8c0-0.3,0.2-0.5,0.5-0.5h5.1c0.3,0,0.5,0.2,0.5,0.5v34.6c0,0.3-0.2,0.5-0.5,0.5h-5.1c-0.3,0-0.5-0.2-0.5-0.5V2.8z
		"/>
	<path d="M630,37.9c-0.3,0-0.5-0.2-0.5-0.5V6.9c0-0.2-0.1-0.3-0.3-0.3h-9.8c-0.3,0-0.5-0.2-0.5-0.5V2.8c0-0.3,0.2-0.5,0.5-0.5h24.8
		c0.3,0,0.5,0.2,0.5,0.5v3.3c0,0.3-0.2,0.5-0.5,0.5h-9.8c-0.2,0-0.3,0.1-0.3,0.3v30.5c0,0.3-0.2,0.5-0.5,0.5H630z"/>
	<path d="M675.6,34.3c-0.2-0.2-0.3-0.5-0.1-0.7l1.3-1.6c0.2-0.3,0.5-0.3,0.7-0.1c2.4,1.8,6.1,3.7,10.2,3.7c5.7,0,9.2-2.9,9.2-7.3
		c0-3.5-2-6.1-8.6-6.9l-1.6-0.2c-7-0.9-10.3-4.2-10.3-9.4c0-6.2,4.4-10,11.2-10c3.9,0,7.7,1.2,10.2,3c0.3,0.2,0.3,0.5,0.1,0.7
		l-1,1.6c-0.2,0.3-0.5,0.3-0.7,0.1c-2.8-1.7-5.6-2.6-8.7-2.6c-5.1,0-8.1,2.8-8.1,7c0,3.6,2.3,6,8.4,6.8l1.6,0.2
		c7.2,0.9,10.4,4.3,10.4,9.6c0,6-4.3,10.3-12.6,10.3C682.7,38.4,678.1,36.4,675.6,34.3z"/>
</g>
</svg>
