<!-- Generated by IcoMoon.io -->
<svg version="1.1" xmlns="http://www.w3.org/2000/svg" width="1160" height="1024" viewBox="0 0 1160 1024">
<title></title>
<g id="icomoon-ignore">
</g>
<path fill="#000" d="M1130.042 929.184l-505.725-875.961c-22.488-38.957-59.32-38.957-81.789 0l-505.743 875.961c-22.488 38.957-4.082 70.816 40.896 70.816h1011.467c44.994 0 63.348-31.858 40.896-70.816zM517.943 272.11c0.098-31.756 25.817-57.476 57.563-57.573h14.559c31.756 0.098 57.476 25.817 57.573 57.563v413.372c-0.098 31.756-25.817 57.476-57.563 57.573h-14.559c-31.756-0.098-57.476-25.817-57.573-57.563v-0.010zM664.826 872.273c-0.098 31.756-25.817 57.476-57.563 57.573h-49.226c-31.756-0.098-57.476-25.817-57.573-57.563v-34.903c0.098-31.756 25.817-57.476 57.563-57.573h49.226c31.756 0.098 57.476 25.817 57.573 57.563v0.010z"></path>
</svg>
