<!-- Generated by IcoMoon.io -->
<svg version="1.1" xmlns="http://www.w3.org/2000/svg" width="1092" height="1024" viewBox="0 0 1092 1024">
<title></title>
<g id="icomoon-ignore">
</g>
<path fill="#000" d="M1091.93 38.767c-6.296 4.822-12.422 9.452-18.483 14.169-46.021 35.85-89.166 74.939-130.605 115.95-60.723 60.085-117.494 123.766-171.956 189.509-65.644 79.223-128.22 160.808-186.785 245.439-55.345 79.966-106.814 162.316-152.034 248.473-9.855 18.781-19.126 37.873-28.765 56.771-0.856 1.637-2.040 2.995-3.474 4.028l-0.034 0.023c-35.038 24.118-70.391 47.816-105.119 72.413-16.665 11.796-32.15 25.217-48.207 37.902-0.222 0.175-0.479 0.31-0.9 0.585-0.229-0.35-0.441-0.752-0.614-1.174l-0.017-0.048c-9.078-30.735-20.792-60.518-32.945-90.119-20.588-50.131-41.789-100.010-66.112-148.474-15.163-30.227-31.659-59.7-51.984-86.84-15.783-21.12-33.974-39.86-56.040-54.579-10.085-6.845-21.639-12.86-33.879-17.473l-1.146-0.379c-0.883-0.321-1.754-0.678-2.829-1.093 0.403-0.526 0.649-0.935 0.97-1.268 22.411-23.189 46.378-44.577 73.957-61.5 18.045-11.060 37.101-19.787 58.045-23.686 12.486-2.338 25.054-3.893 37.563 0.134 11.744 3.782 21.587 10.668 30.624 18.811 16.057 14.467 28.783 31.682 40.433 49.733 20.646 31.98 37.329 66.054 52.831 100.735 6.664 14.912 13.369 29.812 20.29 45.25 0.982-1.537 1.754-2.712 2.49-3.916 39.34-65.183 82.514-127.746 128.916-188.083q70.327-91.452 149.357-175.521c68.216-72.922 139.899-142.208 216.282-206.578 68.538-57.765 140.396-110.976 217.217-157.313 10.832-6.535 21.839-12.784 32.77-19.156 0.824-0.479 1.683-0.912 2.765-1.491z"></path>
</svg>
