<!-- Generated by IcoMoon.io -->
<svg version="1.1" xmlns="http://www.w3.org/2000/svg" width="1287" height="1024" viewBox="0 0 1287 1024">
<title></title>
<g id="icomoon-ignore">
</g>
<path fill="#000" d="M635.783 221.426c66.258 0 128.522 21.609 180.801 62.174l103.723-129.714c-82.114-64.35-180.294-98.567-284.554-98.567-246.939 0-449.319 194.779-461.42 438.798h-118.149l203.602 259.785 204.764-259.785h-123.783c11.892-152.336 139.639-272.691 295.015-272.691z"></path>
<path fill="#000" d="M1013.24 280.977l-207.626 259.547h125.124c-11.863 152.336-139.639 272.691-294.956 272.691-65.542 0-127.836-21.281-180.085-61.489l-1.55-1.192-102.74 130.37 1.222 0.924c81.935 63.784 179.817 97.494 283.153 97.494 246.939 0 449.289-194.779 461.39-438.798h120.385l-204.317-259.547z"></path>
</svg>
